<svg id="svg" version="1.1" xmlns="http://www.w3.org/2000/svg" xmlns:xlink="http://www.w3.org/1999/xlink" width="400" height="100" viewBox="0, 0, 400,100"><g id="svgg"><path id="path0" d="M68.286 8.269 C 68.230 8.326,67.899 8.397,67.550 8.428 C 66.697 8.504,66.172 8.625,65.941 8.798 C 65.836 8.877,65.450 9.028,65.083 9.134 C 64.717 9.240,64.199 9.516,63.932 9.747 C 63.666 9.978,63.378 10.167,63.293 10.167 C 63.158 10.167,62.286 11.021,60.883 12.531 C 60.654 12.777,60.516 13.058,60.576 13.156 C 60.637 13.253,60.610 13.333,60.516 13.333 C 60.288 13.333,60.035 13.829,59.915 14.512 C 59.861 14.819,59.736 15.167,59.637 15.285 C 59.539 15.404,59.502 15.717,59.554 15.981 C 59.607 16.245,59.602 16.509,59.542 16.569 C 59.401 16.710,59.335 22.518,59.476 22.432 C 59.635 22.334,59.737 25.444,59.705 29.417 C 59.689 31.342,59.655 38.898,59.630 46.208 C 59.604 53.519,59.527 59.500,59.458 59.500 C 59.390 59.500,59.333 59.718,59.333 59.986 L 59.333 60.471 58.709 60.168 C 58.366 60.001,58.027 59.900,57.955 59.944 C 57.884 59.989,57.846 59.925,57.871 59.804 C 57.896 59.683,57.825 59.601,57.713 59.623 C 57.602 59.645,57.205 59.364,56.832 58.998 C 56.458 58.633,56.086 58.333,56.004 58.333 C 55.923 58.333,55.804 58.170,55.741 57.971 C 55.678 57.772,55.491 57.464,55.325 57.286 C 55.160 57.109,55.069 56.847,55.124 56.704 C 55.195 56.520,55.160 56.485,55.002 56.582 C 54.836 56.685,54.804 56.629,54.875 56.359 C 54.927 56.161,54.909 56.036,54.836 56.082 C 54.763 56.127,54.653 55.894,54.591 55.564 C 54.529 55.234,54.398 54.766,54.299 54.524 C 54.114 54.071,54.088 53.963,53.944 53.046 C 53.897 52.751,53.815 52.438,53.761 52.351 C 53.707 52.264,53.591 51.830,53.503 51.388 C 53.416 50.945,53.300 50.396,53.247 50.167 C 52.999 49.097,52.962 48.534,52.931 45.417 C 52.898 42.148,52.869 41.805,52.526 40.708 C 52.433 40.410,52.408 40.164,52.470 40.162 C 52.532 40.159,52.452 40.080,52.292 39.987 C 52.131 39.893,52.000 39.741,52.000 39.648 C 52.000 39.556,51.737 39.136,51.417 38.716 C 51.096 38.296,50.833 38.010,50.833 38.080 C 50.833 38.150,50.733 38.124,50.610 38.022 C 50.487 37.920,50.330 37.892,50.262 37.960 C 50.194 38.028,50.164 37.974,50.194 37.841 C 50.225 37.708,50.175 37.592,50.083 37.585 C 49.992 37.578,49.751 37.479,49.548 37.367 C 49.346 37.254,49.121 37.172,49.048 37.184 C 48.976 37.196,48.879 37.192,48.833 37.174 C 47.929 36.821,45.506 36.858,44.638 37.237 C 44.485 37.304,44.222 37.385,44.055 37.417 C 43.887 37.449,43.712 37.489,43.667 37.507 C 43.621 37.525,43.525 37.530,43.454 37.518 C 43.382 37.506,43.281 37.610,43.228 37.748 C 43.174 37.887,43.045 38.000,42.940 38.000 C 42.834 38.000,42.524 38.273,42.249 38.607 C 41.975 38.940,41.651 39.315,41.531 39.439 C 41.411 39.563,41.366 39.751,41.432 39.858 C 41.502 39.971,41.479 40.007,41.378 39.944 C 41.236 39.856,40.964 40.377,41.056 40.562 C 41.071 40.591,40.983 40.736,40.861 40.884 C 40.738 41.031,40.683 41.225,40.738 41.315 C 40.794 41.404,40.764 41.523,40.672 41.580 C 40.476 41.701,40.480 41.630,40.431 45.208 C 40.410 46.744,40.435 48.000,40.488 48.000 C 40.540 48.001,40.595 48.378,40.609 48.839 C 40.623 49.299,40.711 49.769,40.804 49.881 C 40.898 49.994,40.936 50.367,40.890 50.710 C 40.841 51.074,40.876 51.333,40.974 51.333 C 41.067 51.333,41.114 51.557,41.080 51.830 C 41.045 52.103,41.107 52.422,41.217 52.538 C 41.327 52.655,41.409 52.959,41.400 53.214 C 41.390 53.469,41.448 53.718,41.527 53.767 C 41.607 53.816,41.633 53.920,41.585 53.998 C 41.537 54.075,41.573 54.336,41.665 54.578 C 41.756 54.819,41.871 55.330,41.919 55.712 C 41.967 56.094,42.074 56.474,42.157 56.557 C 42.240 56.640,42.265 56.818,42.213 56.954 C 42.161 57.089,42.189 57.249,42.275 57.308 C 42.440 57.422,42.916 58.825,42.864 59.042 C 42.847 59.110,42.913 59.167,43.010 59.167 C 43.107 59.167,43.141 59.240,43.086 59.329 C 43.031 59.418,43.102 59.667,43.244 59.884 C 43.385 60.100,43.445 60.339,43.376 60.415 C 43.307 60.491,43.335 60.505,43.439 60.445 C 43.547 60.384,43.680 60.497,43.748 60.710 C 43.814 60.915,43.895 61.158,43.928 61.250 C 43.961 61.342,44.014 61.549,44.046 61.710 C 44.077 61.871,44.193 62.093,44.302 62.202 C 44.411 62.311,44.500 62.466,44.500 62.548 C 44.500 62.772,45.555 64.886,45.792 65.137 C 45.906 65.258,46.000 65.467,46.000 65.600 C 46.000 65.734,46.112 65.887,46.249 65.939 C 46.386 65.992,46.456 66.103,46.405 66.185 C 46.354 66.268,46.429 66.381,46.573 66.436 C 46.716 66.491,46.833 66.642,46.833 66.772 C 46.833 66.902,47.002 67.075,47.208 67.156 C 47.415 67.237,47.724 67.496,47.896 67.732 C 48.375 68.388,48.703 68.774,48.586 68.542 C 48.528 68.427,48.524 68.333,48.578 68.333 C 48.631 68.333,48.750 68.531,48.842 68.773 C 48.934 69.015,49.050 69.172,49.099 69.123 C 49.183 69.039,49.775 69.536,51.385 71.042 C 51.752 71.385,52.139 71.667,52.245 71.667 C 52.351 71.667,52.585 71.798,52.767 71.958 C 53.444 72.558,54.179 73.012,54.326 72.922 C 54.409 72.870,54.576 72.960,54.697 73.122 C 54.818 73.284,55.059 73.441,55.233 73.471 C 55.407 73.501,55.652 73.628,55.776 73.752 C 55.900 73.876,56.152 74.026,56.334 74.084 C 56.517 74.142,56.667 74.259,56.667 74.345 C 56.667 74.430,56.723 74.488,56.792 74.474 C 57.058 74.417,57.493 74.710,57.390 74.877 C 57.327 74.978,57.362 75.002,57.473 74.933 C 57.685 74.802,58.694 75.721,58.919 76.250 C 59.078 76.625,59.173 81.825,59.026 82.082 C 58.905 82.291,58.886 88.333,59.006 88.333 C 59.054 88.333,59.083 88.540,59.070 88.792 C 59.002 90.041,61.398 91.828,62.351 91.239 C 62.433 91.188,62.500 91.208,62.500 91.282 C 62.500 91.458,75.444 91.444,76.041 91.267 C 76.292 91.192,76.458 91.067,76.409 90.988 C 76.361 90.910,76.477 90.690,76.667 90.499 C 77.088 90.079,77.376 89.370,77.225 89.127 C 77.165 89.029,77.187 88.993,77.274 89.047 C 77.368 89.105,77.444 88.657,77.460 87.947 C 77.520 85.309,77.658 82.714,77.773 82.083 C 77.840 81.717,77.904 80.817,77.915 80.083 C 78.000 74.623,78.196 67.398,78.284 66.500 C 78.417 65.137,78.407 65.210,78.572 64.417 C 78.648 64.050,78.733 63.624,78.760 63.469 C 78.788 63.315,78.894 63.032,78.996 62.841 C 79.098 62.650,79.142 62.428,79.092 62.347 C 78.972 62.153,79.434 61.985,79.752 62.107 C 79.891 62.160,80.108 62.118,80.235 62.013 C 80.361 61.908,80.529 61.836,80.607 61.854 C 80.686 61.872,80.975 61.793,81.250 61.677 C 81.525 61.561,81.850 61.450,81.972 61.430 C 82.094 61.410,82.261 61.286,82.344 61.155 C 82.427 61.024,82.496 60.982,82.497 61.062 C 82.499 61.142,82.601 61.124,82.724 61.022 C 82.847 60.920,83.009 60.892,83.084 60.960 C 83.159 61.028,83.166 60.990,83.100 60.875 C 83.034 60.760,83.041 60.661,83.115 60.654 C 83.643 60.604,83.936 60.480,84.120 60.227 C 84.238 60.067,84.333 59.990,84.333 60.056 C 84.333 60.211,85.261 59.730,85.664 59.366 C 86.323 58.770,86.581 58.585,86.700 58.623 C 86.768 58.645,86.899 58.521,86.992 58.348 C 87.085 58.174,87.519 57.812,87.956 57.542 C 88.393 57.273,88.899 56.853,89.081 56.610 C 89.263 56.366,89.507 56.167,89.623 56.167 C 89.739 56.167,89.833 56.110,89.833 56.040 C 89.833 55.970,90.122 55.614,90.475 55.248 C 90.827 54.883,91.206 54.412,91.316 54.204 C 91.427 53.995,91.588 53.868,91.675 53.922 C 91.762 53.976,91.833 53.909,91.833 53.774 C 91.833 53.638,91.890 53.503,91.958 53.472 C 92.151 53.386,93.058 52.142,93.335 51.583 C 93.471 51.308,93.668 51.028,93.773 50.960 C 94.011 50.806,95.000 48.775,95.000 48.439 C 95.000 48.302,95.118 48.073,95.262 47.929 C 95.406 47.785,95.472 47.667,95.408 47.667 C 95.345 47.667,95.363 47.573,95.450 47.458 C 95.537 47.344,95.617 47.069,95.629 46.848 C 95.640 46.627,95.730 46.397,95.829 46.336 C 95.927 46.275,96.045 45.935,96.091 45.579 C 96.136 45.223,96.228 44.891,96.295 44.841 C 96.362 44.791,96.430 44.637,96.446 44.500 C 96.503 44.025,96.644 43.521,96.805 43.219 C 96.894 43.053,96.989 42.654,97.016 42.333 C 97.043 42.012,97.104 41.675,97.153 41.583 C 97.281 41.341,97.357 40.978,97.388 40.458 C 97.403 40.206,97.491 39.999,97.583 39.997 C 97.675 39.996,97.638 39.922,97.500 39.833 C 97.317 39.715,97.309 39.671,97.469 39.669 C 97.589 39.668,97.674 39.535,97.658 39.375 C 97.642 39.215,97.647 39.046,97.671 39.000 C 97.825 38.696,97.927 33.023,97.786 32.583 C 97.727 32.400,97.634 31.988,97.580 31.668 C 97.525 31.348,97.371 31.025,97.237 30.949 C 97.103 30.874,97.036 30.742,97.090 30.656 C 97.143 30.570,97.107 30.500,97.010 30.500 C 96.913 30.500,96.833 30.415,96.833 30.311 C 96.833 30.111,96.460 29.742,95.426 28.917 C 95.082 28.642,94.697 28.320,94.572 28.202 C 94.447 28.085,94.324 27.996,94.298 28.006 C 94.271 28.015,94.025 27.930,93.750 27.815 C 92.904 27.462,89.390 27.529,88.583 27.914 C 87.719 28.326,86.480 29.258,86.616 29.394 C 86.675 29.452,86.635 29.500,86.528 29.500 C 86.421 29.500,86.333 29.609,86.333 29.742 C 86.333 29.875,86.234 30.043,86.112 30.117 C 85.899 30.246,85.717 30.593,85.702 30.898 C 85.698 30.979,85.607 31.101,85.498 31.168 C 85.363 31.251,85.312 31.855,85.336 33.103 C 85.428 37.915,85.389 39.982,85.204 40.205 C 85.098 40.332,84.971 40.763,84.921 41.162 C 84.871 41.561,84.747 41.986,84.646 42.108 C 84.545 42.230,84.506 42.443,84.559 42.581 C 84.613 42.720,84.584 42.833,84.495 42.833 C 84.406 42.833,84.333 42.979,84.333 43.157 C 84.333 43.335,84.257 43.527,84.164 43.585 C 84.071 43.643,84.035 43.754,84.083 43.833 C 84.132 43.912,84.095 44.025,84.000 44.083 C 83.905 44.142,83.871 44.260,83.924 44.345 C 83.977 44.430,83.945 44.500,83.854 44.500 C 83.764 44.500,83.644 44.643,83.588 44.818 C 83.533 44.993,83.266 45.387,82.996 45.693 C 82.726 45.999,82.504 46.306,82.503 46.375 C 82.501 46.444,82.415 46.500,82.311 46.500 C 82.207 46.500,82.001 46.637,81.853 46.805 C 81.184 47.561,78.671 48.413,78.660 47.888 C 78.634 46.662,78.714 41.136,78.765 40.667 C 78.871 39.692,79.042 37.149,79.079 36.000 C 79.181 32.861,79.262 31.668,79.375 31.667 C 79.561 31.666,79.526 29.203,79.325 28.114 C 79.229 27.593,79.123 25.986,79.091 24.542 C 79.031 21.858,78.921 19.935,78.760 18.750 C 78.711 18.383,78.635 17.740,78.591 17.319 C 78.548 16.899,78.428 16.337,78.324 16.069 C 78.147 15.612,78.099 15.407,77.946 14.442 C 77.913 14.227,77.821 13.947,77.742 13.820 C 77.663 13.693,77.590 13.475,77.579 13.336 C 77.551 12.975,76.696 11.667,76.488 11.667 C 76.392 11.667,76.360 11.592,76.417 11.500 C 76.473 11.408,76.421 11.333,76.300 11.333 C 76.179 11.333,75.893 11.103,75.665 10.821 C 75.437 10.540,74.912 10.111,74.500 9.869 C 74.087 9.627,73.675 9.334,73.583 9.218 C 73.492 9.102,73.164 8.989,72.856 8.967 C 72.547 8.944,72.260 8.836,72.217 8.725 C 72.175 8.615,71.998 8.552,71.824 8.585 C 71.649 8.619,71.467 8.582,71.419 8.504 C 71.371 8.425,71.067 8.382,70.744 8.408 C 70.422 8.433,70.118 8.390,70.069 8.310 C 69.968 8.147,68.443 8.112,68.286 8.269 M136.583 18.841 C 135.667 18.925,134.617 19.067,134.250 19.157 C 133.883 19.247,133.246 19.367,132.833 19.424 C 132.421 19.480,131.858 19.594,131.583 19.676 C 131.308 19.757,130.521 19.983,129.833 20.177 C 128.393 20.583,127.263 20.978,126.667 21.284 C 126.438 21.402,126.191 21.498,126.118 21.499 C 126.045 21.500,125.505 21.725,124.917 22.000 C 124.328 22.275,123.769 22.500,123.674 22.500 C 123.578 22.500,123.500 22.575,123.500 22.667 C 123.500 22.758,123.417 22.833,123.315 22.833 C 122.272 22.833,115.000 28.520,115.000 29.336 C 115.000 29.398,114.812 29.666,114.581 29.932 C 113.002 31.759,111.432 35.131,110.167 39.417 C 108.639 44.593,109.779 58.883,112.175 64.583 C 112.252 64.767,112.484 65.329,112.690 65.833 C 116.310 74.704,124.341 80.221,135.000 81.161 C 138.524 81.472,143.527 81.320,146.000 80.826 C 148.599 80.306,150.662 79.761,151.583 79.350 C 151.767 79.268,152.329 79.039,152.833 78.841 C 157.420 77.037,161.437 73.673,164.009 69.482 C 164.481 68.713,164.827 68.233,164.778 68.417 C 164.690 68.747,164.412 69.687,163.903 71.375 C 163.758 71.856,163.537 72.625,163.413 73.083 C 163.289 73.542,163.068 74.329,162.921 74.833 C 162.775 75.337,162.469 76.449,162.242 77.304 L 161.828 78.858 162.198 79.387 C 162.401 79.678,162.646 79.977,162.742 80.051 C 163.074 80.307,182.942 80.012,184.257 79.732 C 185.669 79.431,185.676 79.422,186.236 77.068 C 186.474 76.068,186.744 74.987,186.836 74.667 C 187.017 74.031,187.244 73.091,187.560 71.667 L 187.764 70.750 194.173 70.702 C 198.752 70.669,200.790 70.712,201.308 70.854 C 202.022 71.050,202.998 71.879,202.999 72.292 C 203.000 72.406,203.059 72.500,203.130 72.500 C 203.202 72.500,203.349 72.706,203.457 72.958 C 203.565 73.210,203.814 73.792,204.010 74.250 C 204.278 74.873,204.390 75.558,204.455 76.962 C 204.603 80.152,204.368 80.103,218.232 79.843 C 223.833 79.737,228.563 79.607,228.742 79.554 C 229.467 79.336,229.715 78.543,229.344 77.633 C 229.258 77.422,229.027 76.688,228.832 76.000 C 228.636 75.313,228.412 74.600,228.333 74.417 C 228.255 74.233,228.026 73.521,227.825 72.833 C 227.624 72.146,227.178 70.721,226.833 69.667 C 226.489 68.612,226.042 67.188,225.841 66.500 C 225.641 65.813,225.412 65.100,225.333 64.917 C 225.255 64.733,225.026 64.021,224.824 63.333 C 224.623 62.646,224.251 61.446,223.997 60.667 C 223.744 59.887,223.297 58.462,223.005 57.500 C 222.713 56.538,222.414 55.600,222.341 55.417 C 222.268 55.233,222.039 54.521,221.831 53.833 C 221.623 53.146,221.247 51.946,220.995 51.167 C 220.742 50.387,220.297 48.962,220.005 48.000 C 219.713 47.038,219.414 46.100,219.341 45.917 C 219.268 45.733,219.040 45.021,218.833 44.333 C 218.627 43.646,218.288 42.558,218.079 41.917 C 217.871 41.275,217.424 39.850,217.085 38.750 C 216.747 37.650,216.411 36.600,216.339 36.417 C 216.267 36.233,216.040 35.521,215.833 34.833 C 215.627 34.146,215.288 33.058,215.079 32.417 C 214.871 31.775,214.424 30.350,214.085 29.250 C 213.747 28.150,213.411 27.100,213.339 26.917 C 213.267 26.733,213.039 26.021,212.831 25.333 C 212.623 24.646,212.238 23.426,211.976 22.623 C 211.714 21.819,211.500 21.040,211.500 20.892 C 211.500 19.636,211.028 19.603,194.833 19.743 L 181.083 19.862 180.800 20.223 C 180.644 20.421,179.765 22.833,178.846 25.583 C 177.926 28.333,176.647 32.158,176.003 34.083 C 175.359 36.008,174.767 37.698,174.687 37.839 C 174.608 37.979,174.487 38.354,174.419 38.672 C 174.351 38.990,174.237 39.325,174.167 39.417 C 174.096 39.508,173.984 39.846,173.917 40.167 C 173.850 40.487,173.737 40.825,173.667 40.917 C 173.596 41.008,173.484 41.346,173.417 41.667 C 173.350 41.987,173.237 42.325,173.167 42.417 C 173.096 42.508,172.984 42.846,172.917 43.167 C 172.850 43.487,172.737 43.825,172.667 43.917 C 172.596 44.008,172.484 44.346,172.417 44.667 C 172.350 44.987,172.237 45.325,172.167 45.417 C 172.096 45.508,171.984 45.846,171.917 46.167 C 171.850 46.487,171.737 46.825,171.667 46.917 C 171.596 47.008,171.484 47.346,171.417 47.667 C 171.350 47.987,171.237 48.325,171.167 48.417 C 171.096 48.508,170.984 48.846,170.917 49.167 C 170.850 49.487,170.737 49.825,170.667 49.917 C 170.596 50.008,170.484 50.346,170.417 50.667 C 170.350 50.987,170.237 51.325,170.167 51.417 C 170.096 51.508,169.984 51.846,169.917 52.167 C 169.850 52.487,169.737 52.825,169.667 52.917 C 169.596 53.008,169.483 53.343,169.415 53.661 C 169.347 53.979,169.231 54.354,169.158 54.495 C 169.085 54.635,168.750 55.650,168.414 56.750 C 168.078 57.850,167.779 58.825,167.748 58.917 C 167.718 59.008,167.687 58.647,167.680 58.114 C 167.664 56.930,167.496 56.589,166.812 56.351 C 165.807 56.000,145.110 56.101,144.790 56.458 C 144.456 56.831,144.120 57.701,143.582 59.583 C 142.453 63.542,140.622 64.837,138.025 63.513 C 135.819 62.387,134.440 58.127,134.730 53.333 C 134.788 52.371,134.908 49.521,134.996 47.000 C 135.195 41.323,135.673 38.868,136.859 37.425 C 136.939 37.329,137.146 37.059,137.321 36.825 C 137.955 35.977,139.056 35.583,140.799 35.583 L 142.371 35.583 143.091 36.380 C 143.843 37.210,144.218 38.166,144.411 39.750 C 144.584 41.168,145.031 42.474,145.537 43.041 L 146.021 43.583 155.135 43.583 C 167.975 43.583,167.240 43.807,167.125 39.942 C 166.985 35.204,165.823 31.533,163.313 27.903 C 162.503 26.731,159.455 23.500,159.159 23.500 C 159.085 23.500,158.925 23.403,158.804 23.284 C 158.468 22.956,156.714 21.943,155.500 21.376 C 152.960 20.192,150.711 19.549,147.167 18.993 C 145.665 18.758,138.606 18.656,136.583 18.841 M251.417 18.853 C 250.500 18.930,249.450 19.067,249.083 19.157 C 248.717 19.247,248.079 19.367,247.667 19.424 C 247.254 19.480,246.692 19.594,246.417 19.676 C 246.142 19.757,245.354 19.983,244.667 20.176 C 242.964 20.656,241.317 21.263,239.888 21.937 C 239.231 22.246,238.618 22.500,238.527 22.500 C 238.436 22.500,238.336 22.556,238.306 22.625 C 238.275 22.694,237.875 22.938,237.417 23.167 C 236.958 23.396,236.546 23.621,236.500 23.667 C 236.454 23.713,236.209 23.858,235.954 23.989 C 230.799 26.647,226.331 33.217,224.726 40.500 C 224.375 42.094,224.227 49.804,224.489 52.833 C 224.786 56.274,224.897 56.945,225.746 60.417 C 226.393 63.067,226.537 63.573,226.690 63.742 C 226.769 63.829,226.833 64.005,226.833 64.133 C 226.833 65.107,229.824 70.430,231.432 72.319 C 233.880 75.195,239.089 78.991,240.602 79.001 C 240.683 79.002,240.951 79.107,241.197 79.235 C 241.443 79.364,241.891 79.523,242.192 79.589 C 242.493 79.655,242.854 79.768,242.995 79.840 C 243.301 79.998,244.949 80.404,246.667 80.745 C 250.351 81.478,257.371 81.517,260.833 80.826 C 263.620 80.269,265.649 79.719,266.373 79.324 C 266.532 79.238,266.740 79.167,266.836 79.167 C 267.468 79.167,272.641 76.311,273.500 75.488 C 273.637 75.356,274.148 74.920,274.634 74.518 C 275.121 74.115,275.935 73.291,276.443 72.685 C 276.951 72.079,277.494 71.432,277.649 71.246 C 279.909 68.549,282.507 61.444,282.493 58.000 C 282.489 56.935,282.255 56.550,281.478 56.327 C 280.823 56.139,260.013 56.108,259.733 56.294 C 259.361 56.543,259.082 57.260,258.162 60.333 C 257.425 62.798,256.276 63.923,254.519 63.905 C 252.194 63.880,250.859 62.347,249.886 58.583 C 249.280 56.242,249.730 42.156,250.479 39.976 C 251.630 36.633,252.856 35.583,255.612 35.583 C 258.062 35.583,258.695 36.409,259.331 40.435 C 259.526 41.671,259.994 42.801,260.496 43.250 C 261.046 43.743,278.758 43.770,280.481 43.281 C 282.070 42.830,282.040 42.897,281.974 39.997 L 281.917 37.500 287.750 37.502 C 294.503 37.505,294.203 37.463,294.702 38.476 L 295.083 39.250 295.050 47.000 C 295.031 51.262,294.932 57.075,294.828 59.917 C 294.725 62.758,294.605 68.046,294.561 71.667 L 294.481 78.250 295.155 79.000 C 295.525 79.412,295.829 79.795,295.831 79.851 C 295.840 80.192,318.758 79.992,319.167 79.647 L 319.583 79.296 319.627 58.058 L 319.670 36.819 326.377 36.935 C 333.867 37.065,333.384 37.135,333.683 35.880 C 333.769 35.519,333.786 32.156,333.723 28.007 L 333.613 20.765 333.210 20.361 L 332.807 19.958 317.028 20.062 C 308.350 20.119,296.809 20.213,291.381 20.271 L 281.511 20.375 281.264 21.229 C 281.066 21.912,281.018 23.213,281.023 27.721 C 281.030 33.478,280.992 34.041,280.674 32.859 C 279.929 30.092,276.425 25.295,273.651 23.244 C 268.885 19.719,260.585 18.080,251.417 18.853 M335.574 19.903 C 335.292 20.109,335.251 20.341,335.260 21.695 C 335.329 32.931,335.307 37.970,335.171 41.667 C 335.082 44.096,335.001 49.908,334.992 54.583 C 334.983 59.258,334.907 64.246,334.823 65.667 C 334.738 67.087,334.621 70.856,334.562 74.042 L 334.454 79.833 347.144 79.833 L 359.833 79.833 359.833 49.929 L 359.833 20.025 351.292 20.009 C 346.594 19.999,341.325 19.921,339.583 19.835 C 337.842 19.748,336.300 19.675,336.157 19.672 C 336.014 19.669,335.751 19.773,335.574 19.903 M196.062 33.542 C 196.186 34.180,196.588 36.008,196.913 37.417 C 197.040 37.967,197.259 38.942,197.400 39.583 C 197.541 40.225,197.777 41.275,197.925 41.917 C 198.073 42.558,198.299 43.571,198.428 44.167 C 198.557 44.762,198.775 45.737,198.914 46.333 C 199.052 46.929,199.277 47.942,199.414 48.583 C 199.551 49.225,199.777 50.237,199.917 50.833 C 200.056 51.429,200.282 52.442,200.417 53.083 C 200.553 53.725,200.731 54.529,200.813 54.870 C 201.116 56.127,198.187 56.837,192.722 56.830 L 190.250 56.827 189.690 55.971 L 189.129 55.114 189.407 53.849 C 189.559 53.153,189.757 52.321,189.847 52.000 C 189.936 51.679,190.077 51.079,190.160 50.667 C 190.242 50.254,190.435 49.392,190.589 48.750 C 190.742 48.108,190.977 47.096,191.111 46.500 C 191.245 45.904,191.466 44.929,191.602 44.333 C 191.739 43.737,191.917 42.950,191.999 42.583 C 192.442 40.605,193.187 38.027,193.708 36.667 C 194.375 34.925,195.499 33.000,195.849 33.000 C 195.908 33.000,196.004 33.244,196.062 33.542 " stroke="none" fill="#acdc54" fill-rule="evenodd"></path><path id="path1" d="M59.375 17.583 C 59.377 17.950,59.411 18.080,59.451 17.873 C 59.491 17.666,59.490 17.366,59.448 17.206 C 59.406 17.047,59.374 17.217,59.375 17.583 M78.793 19.417 C 78.836 19.646,78.901 19.833,78.936 19.833 C 78.971 19.833,79.000 19.646,79.000 19.417 C 79.000 19.188,78.935 19.000,78.856 19.000 C 78.777 19.000,78.749 19.188,78.793 19.417 M59.372 21.000 C 59.372 21.321,59.406 21.452,59.448 21.292 C 59.490 21.131,59.490 20.869,59.448 20.708 C 59.406 20.548,59.372 20.679,59.372 21.000 M79.039 24.667 C 79.039 24.988,79.073 25.119,79.115 24.958 C 79.157 24.798,79.157 24.535,79.115 24.375 C 79.073 24.215,79.039 24.346,79.039 24.667 M59.709 26.583 C 59.711 26.950,59.745 27.080,59.785 26.873 C 59.824 26.666,59.823 26.366,59.781 26.206 C 59.739 26.047,59.707 26.217,59.709 26.583 M85.214 32.917 C 85.216 33.375,85.248 33.543,85.286 33.289 C 85.325 33.036,85.324 32.661,85.284 32.456 C 85.244 32.251,85.213 32.458,85.214 32.917 M97.879 34.833 C 97.879 35.246,97.911 35.415,97.951 35.208 C 97.991 35.002,97.991 34.665,97.951 34.458 C 97.911 34.252,97.879 34.421,97.879 34.833 M97.885 36.583 C 97.886 37.133,97.917 37.338,97.954 37.039 C 97.991 36.739,97.990 36.289,97.952 36.039 C 97.914 35.788,97.884 36.033,97.885 36.583 M52.879 47.500 C 52.879 47.913,52.911 48.081,52.951 47.875 C 52.991 47.669,52.991 47.331,52.951 47.125 C 52.911 46.919,52.879 47.087,52.879 47.500 M59.050 77.333 C 59.050 77.837,59.081 78.044,59.119 77.792 C 59.158 77.540,59.158 77.127,59.119 76.875 C 59.081 76.623,59.050 76.829,59.050 77.333 M77.885 79.750 C 77.886 80.300,77.917 80.505,77.954 80.205 C 77.991 79.906,77.990 79.456,77.952 79.205 C 77.914 78.955,77.884 79.200,77.885 79.750 M59.052 81.083 C 59.053 81.633,59.084 81.838,59.121 81.539 C 59.158 81.239,59.157 80.789,59.119 80.539 C 59.081 80.288,59.051 80.533,59.052 81.083 M58.872 83.500 C 58.872 83.821,58.906 83.952,58.948 83.792 C 58.990 83.631,58.990 83.369,58.948 83.208 C 58.906 83.048,58.872 83.179,58.872 83.500 M58.892 85.500 C 58.892 86.279,58.920 86.598,58.955 86.208 C 58.990 85.819,58.990 85.181,58.955 84.792 C 58.920 84.402,58.892 84.721,58.892 85.500 M77.542 84.750 C 77.544 85.117,77.578 85.247,77.618 85.040 C 77.658 84.832,77.656 84.532,77.615 84.373 C 77.573 84.214,77.540 84.383,77.542 84.750 M65.965 91.457 C 66.541 91.490,67.441 91.489,67.965 91.456 C 68.488 91.423,68.017 91.397,66.917 91.397 C 65.817 91.397,65.388 91.424,65.965 91.457 " stroke="none" fill="#acdc4c" fill-rule="evenodd"></path><path id="path2" d="M59.539 24.833 C 59.539 25.154,59.573 25.285,59.615 25.125 C 59.657 24.965,59.657 24.702,59.615 24.542 C 59.573 24.381,59.539 24.512,59.539 24.833 M59.709 27.750 C 59.711 28.117,59.745 28.247,59.785 28.040 C 59.824 27.832,59.823 27.532,59.781 27.373 C 59.739 27.214,59.707 27.383,59.709 27.750 M85.385 37.250 C 85.386 37.800,85.417 38.005,85.454 37.705 C 85.491 37.406,85.490 36.956,85.452 36.705 C 85.414 36.455,85.384 36.700,85.385 37.250 M59.560 56.000 C 59.560 56.871,59.588 57.227,59.623 56.792 C 59.657 56.356,59.657 55.644,59.623 55.208 C 59.588 54.773,59.560 55.129,59.560 56.000 " stroke="none" fill="#b0dc54" fill-rule="evenodd"></path><path id="path3" d="M59.539 24.833 C 59.539 25.154,59.573 25.285,59.615 25.125 C 59.657 24.965,59.657 24.702,59.615 24.542 C 59.573 24.381,59.539 24.512,59.539 24.833 M59.709 27.750 C 59.711 28.117,59.745 28.247,59.785 28.040 C 59.824 27.832,59.823 27.532,59.781 27.373 C 59.739 27.214,59.707 27.383,59.709 27.750 M85.385 37.250 C 85.386 37.800,85.417 38.005,85.454 37.705 C 85.491 37.406,85.490 36.956,85.452 36.705 C 85.414 36.455,85.384 36.700,85.385 37.250 M59.560 56.000 C 59.560 56.871,59.588 57.227,59.623 56.792 C 59.657 56.356,59.657 55.644,59.623 55.208 C 59.588 54.773,59.560 55.129,59.560 56.000 " stroke="none" fill="#b0dc54" fill-rule="evenodd"></path><path id="path4" d="M59.539 24.833 C 59.539 25.154,59.573 25.285,59.615 25.125 C 59.657 24.965,59.657 24.702,59.615 24.542 C 59.573 24.381,59.539 24.512,59.539 24.833 M59.709 27.750 C 59.711 28.117,59.745 28.247,59.785 28.040 C 59.824 27.832,59.823 27.532,59.781 27.373 C 59.739 27.214,59.707 27.383,59.709 27.750 M85.385 37.250 C 85.386 37.800,85.417 38.005,85.454 37.705 C 85.491 37.406,85.490 36.956,85.452 36.705 C 85.414 36.455,85.384 36.700,85.385 37.250 M59.560 56.000 C 59.560 56.871,59.588 57.227,59.623 56.792 C 59.657 56.356,59.657 55.644,59.623 55.208 C 59.588 54.773,59.560 55.129,59.560 56.000 " stroke="none" fill="#b0dc54" fill-rule="evenodd"></path></g></svg>